<svg xmlns="http://www.w3.org/2000/svg" width="96" height="96" fill="none" viewBox="0 0 96 96"><g clip-path="url(#clip0)"><path fill="#3805A4" d="M65.7495 71.9312C64.8667 71.9312 64.151 72.6468 64.151 73.5296V83.1204H16.1969V12.7878H64.151V22.4793C64.151 23.3621 64.8667 24.0777 65.7495 24.0777C66.6323 24.0777 67.348 23.3621 67.348 22.4793V6.39388C67.348 2.86265 64.4853 0 60.9541 0H19.3939C15.8627 0 13 2.86265 13 6.39388V87.9159C13.0053 92.3277 16.5805 95.9029 20.9924 95.9082H59.3556C63.7675 95.9029 67.3427 92.3277 67.348 87.9159V73.5296C67.348 72.6468 66.6323 71.9312 65.7495 71.9312ZM19.3939 3.19694H60.9541C62.7197 3.19694 64.151 4.62827 64.151 6.39388V9.59082H16.1969V6.39388C16.1969 4.62827 17.6283 3.19694 19.3939 3.19694ZM59.3556 92.7113H20.9924C18.3439 92.7113 16.1969 90.5643 16.1969 87.9159V86.3174H64.151V87.9159C64.151 90.5643 62.0041 92.7113 59.3556 92.7113Z" filter="url(#filter0_d)"/><path fill="#3805A4" d="M73.6121 42.0918C74.7241 40.6991 75.333 38.9715 75.34 37.1893V33.9924C75.3347 29.5805 71.7595 26.0053 67.3477 26H64.1507C59.7389 26.0053 56.1637 29.5805 56.1584 33.9924V37.1893C56.1654 38.9715 56.7743 40.6991 57.8863 42.0918C52.3293 42.8327 48.1761 47.5679 48.166 53.174V69.1587C48.166 70.0415 48.8817 70.7572 49.7645 70.7572H81.7339C82.6167 70.7572 83.3324 70.0415 83.3324 69.1587V53.174C83.3223 47.5679 79.169 42.8327 73.6121 42.0918ZM59.3553 33.9924C59.3553 31.3439 61.5023 29.1969 64.1507 29.1969H67.3477C69.9961 29.1969 72.1431 31.3439 72.1431 33.9924V37.1893C72.1431 39.8377 69.9961 41.9847 67.3477 41.9847H64.1507C61.5023 41.9847 59.3553 39.8377 59.3553 37.1893V33.9924ZM80.1354 67.5602H51.363V53.174C51.3683 48.7621 54.9434 45.1869 59.3553 45.1816H72.1431C76.5549 45.1869 80.1301 48.7621 80.1354 53.174V67.5602Z" filter="url(#filter1_d)"/></g><defs><filter id="filter0_d" width="58.348" height="99.908" x="12" y="0" color-interpolation-filters="sRGB" filterUnits="userSpaceOnUse"><feFlood flood-opacity="0" result="BackgroundImageFix"/><feColorMatrix in="SourceAlpha" values="0 0 0 0 0 0 0 0 0 0 0 0 0 0 0 0 0 0 127 0"/><feOffset dx="1" dy="2"/><feGaussianBlur stdDeviation="1"/><feColorMatrix values="0 0 0 0 0 0 0 0 0 0 0 0 0 0 0 0 0 0 0.25 0"/><feBlend in2="BackgroundImageFix" result="effect1_dropShadow"/><feBlend in="SourceGraphic" in2="effect1_dropShadow" result="shape"/></filter><filter id="filter1_d" width="39.166" height="48.757" x="47.166" y="26" color-interpolation-filters="sRGB" filterUnits="userSpaceOnUse"><feFlood flood-opacity="0" result="BackgroundImageFix"/><feColorMatrix in="SourceAlpha" values="0 0 0 0 0 0 0 0 0 0 0 0 0 0 0 0 0 0 127 0"/><feOffset dx="1" dy="2"/><feGaussianBlur stdDeviation="1"/><feColorMatrix values="0 0 0 0 0 0 0 0 0 0 0 0 0 0 0 0 0 0 0.25 0"/><feBlend in2="BackgroundImageFix" result="effect1_dropShadow"/><feBlend in="SourceGraphic" in2="effect1_dropShadow" result="shape"/></filter><clipPath id="clip0"><rect width="96" height="96" fill="#fff"/></clipPath></defs></svg>