<svg xmlns="http://www.w3.org/2000/svg" xmlns:xlink="http://www.w3.org/1999/xlink" data-name="Layer 1" viewBox="0 0 516.07 597.28"><defs><linearGradient id="a" x1="219.16" x2="593.72" y1="552.93" y2="552.93" gradientUnits="userSpaceOnUse"><stop offset="0" stop-color="#183866"/><stop offset="1" stop-color="#1a7fc1"/></linearGradient><linearGradient id="d" x1="278.51" x2="755.96" y1="363.85" y2="336.7" gradientUnits="userSpaceOnUse"><stop offset="0" stop-color="#68e1fd"/><stop offset=".3" stop-color="#58a0ba"/><stop offset=".55" stop-color="#4c718a"/><stop offset=".68" stop-color="#485f77"/><stop offset=".69" stop-color="#475c74"/><stop offset=".87" stop-color="#41455e"/><stop offset=".99" stop-color="#3f3d56"/></linearGradient><linearGradient id="b" x1="406.51" x2="420.76" y1="686.89" y2="14.04" gradientUnits="userSpaceOnUse"><stop offset=".01" stop-opacity="0"/><stop offset=".93" stop-opacity=".89"/><stop offset=".98"/></linearGradient><linearGradient id="e" x1="410.36" x2="483.27" y1="191.67" y2="191.67" xlink:href="#a"/><linearGradient id="f" x1="414.47" x2="419.92" y1="450.62" y2="743.9" xlink:href="#b"/><linearGradient id="c" x1="358.42" x2="426.24" y1="70.09" y2="70.09" gradientUnits="userSpaceOnUse"><stop offset="0" stop-color="#ecc4d7"/><stop offset=".42" stop-color="#efd4d1"/><stop offset="1" stop-color="#f2eac9"/></linearGradient><linearGradient id="g" x1="403.48" x2="491.46" y1="92.16" y2="113.9" xlink:href="#b"/><linearGradient id="h" x1="415.39" x2="448.54" y1="38.04" y2="38.04" xlink:href="#c"/><linearGradient id="i" x1="651.76" x2="674.92" y1="-13.48" y2="9.56" gradientTransform="rotate(-6.47 922.55 1878.507)" xlink:href="#d"/><linearGradient id="j" x1="373.54" x2="388.17" y1="234.55" y2="234.55" xlink:href="#c"/><linearGradient id="k" x1="372.89" x2="386.11" y1="235.15" y2="247.44" xlink:href="#d"/><linearGradient id="l" x1="414.79" x2="427.96" y1="234.88" y2="234.88" xlink:href="#c"/><linearGradient id="m" x1="414.89" x2="426.38" y1="236.63" y2="246.26" xlink:href="#d"/><linearGradient id="n" x1="438.37" x2="473.22" y1="64.79" y2="64.79" xlink:href="#c"/></defs><path fill="#68e1fd" d="M202.77,471.39c-6.68-32.72,7-68.21-4.87-99.42-9.79-25.68-34.68-42.32-49.29-65.6-18.72-29.82-18.22-70.58,1.22-99.93,20.56-31,57.26-46.53,86.14-70,18.83-15.32,34.54-34.28,54-48.77s44.68-24.33,68-17.6c14.95,4.32,27.29,14.87,41.64,20.88,32.39,13.58,69.1,2.45,104.13-.27a213.36,213.36,0,0,1,90.09,12.51c18.23,6.72,36.27,16.62,46.89,32.89,11.17,17.12,12.52,39.33,7.36,59.11s-16.21,37.51-28.44,53.89c-19,25.38-42.6,55.05-32.37,85,6.48,19,24.88,31,37.12,46.88C650.89,415.42,643,471.1,608,496.83c-14.21,10.44-32,16.51-43.08,30.23-6.13,7.59-9.71,17-16,24.49-16.24,19.49-45.12,21-70.48,20.8q-46.17-.36-92.32-1.44c-27.09-.63-64.49,4.74-90.34-3.39C257.51,555.46,210.88,511.08,202.77,471.39Z" opacity=".18" transform="translate(-134.9)"/><path fill="url(#a)" d="M250.79,541.78c-15,4.38-32.81,13.8-31.57,29.38,1.27,15.94,21.11,22.2,37,23.68,30.26,2.8,60.72,2.55,91.11,2.29l127.13-1.07c29.35-.25,58.9-.52,87.69-6.2,9.12-1.8,18.61-4.4,25.2-11s8.94-18.23,2.68-25.11c-5.83-6.4-15.94-6.11-23.58-10.19-8.54-4.56-13.1-14-20-20.79C531.3,508,507.5,508,486.33,508.91L347.7,515c-17.22.75-41-2.6-57.19,4C276.71,524.52,268,541.78,250.79,541.78Z" opacity=".19" transform="translate(-134.9)"/><rect width="248.42" height="430.99" x="145.39" y="148.86" fill="url(#d)" rx="23.66"/><rect width="248.42" height="430.99" x="154.67" y="148.86" fill="#68e1fd" rx="23.66"/><path fill="url(#b)" d="M526.1,182.76V504a20.64,20.64,0,0,1-20.64,20.64H322.1A20.65,20.65,0,0,1,301.46,504V182.76a20.65,20.65,0,0,1,20.64-20.64h49.25V169a10.87,10.87,0,0,0,10.87,10.87h73.17A10.87,10.87,0,0,0,466.26,169v-6.84h39.2A20.64,20.64,0,0,1,526.1,182.76Z" transform="translate(-134.9)"/><path fill="url(#e)" d="M456,167.55c-3.05,2.88-7.55,4.58-9.06,8.5-1.25,3.24.05,6.84.5,10.28,1,7.73-2.27,15.26-4.44,22.75a80.87,80.87,0,0,0-3.19,22.78c0,3.78.23,7.83-1.76,11s-7.28,4.58-9.48,1.51a7.4,7.4,0,0,1-1-2.22C424,230.7,426.15,218.33,426,206.3s-3.9-25.55-14.58-31.08a482.06,482.06,0,0,1-11.1,62.07c-1.08,4.4-3.44,9.75-8,9.65-.84-6.48-1.17-13-1.5-19.54q-1.87-37.18-3.74-74.39c-.1-2-.18-4.22.75-6,1.39-2.76,4.62-4,7.59-4.86a138.82,138.82,0,0,1,34.7-5.67c7.87-.28,19.47,1.26,25.12,7.62C460.51,150,462.09,161.79,456,167.55Z" opacity=".19" transform="translate(-134.9)"/><path fill="url(#f)" d="M436.57,563.75H396.13a12.36,12.36,0,0,1-12.36-12.36h0A12.35,12.35,0,0,1,396.13,539h40.44a12.35,12.35,0,0,1,12.35,12.35h0A12.35,12.35,0,0,1,436.57,563.75Z" transform="translate(-134.9)"/><circle cx="360.38" cy="313.36" r="23.39" fill="none" stroke="#fff" stroke-miterlimit="10" stroke-width=".82" transform="rotate(-76.72 292.915 398.588)"/><circle cx="420.51" cy="313.36" r="23.39" fill="none" stroke="#fff" stroke-miterlimit="10" stroke-width=".82" transform="rotate(-76.72 353.045 398.585)"/><circle cx="480.64" cy="313.36" r="23.39" fill="none" stroke="#fff" stroke-miterlimit="10" stroke-width=".82" transform="rotate(-76.72 413.17 398.589)"/><circle cx="360.38" cy="375.33" r="23.39" fill="none" stroke="#fff" stroke-miterlimit="10" stroke-width=".82" transform="rotate(-76.72 292.913 460.554)"/><circle cx="420.51" cy="375.33" r="23.39" fill="none" stroke="#fff" stroke-miterlimit="10" stroke-width=".82" transform="rotate(-76.72 353.038 460.557)"/><circle cx="423.09" cy="462.81" r="31.63" fill="#ff354e" transform="rotate(-45 355.638 625.64)"/><circle cx="480.64" cy="375.33" r="23.39" fill="none" stroke="#fff" stroke-miterlimit="10" stroke-width=".82" transform="rotate(-76.72 413.168 460.555)"/><path fill="#fff" d="M403.64,461.24a1.34,1.34,0,0,1-1.22-1.85c1.08-2.74,4-11.3,20.35-11.3,15.44,0,18.92,8.54,20.06,11.28a1.34,1.34,0,0,1-1.21,1.87h-6.18a1.31,1.31,0,0,1-1.15-.68c-.81-1.5-2.65-8.71-11.81-8.71-7.46,0-10.23,4-11.77,8.48a1.34,1.34,0,0,1-1.25.91Z" transform="translate(-134.9)"/><rect width="15.34" height="8.95" x="263.54" y="460.01" fill="#fff" rx="3.7"/><rect width="15.34" height="8.95" x="295.8" y="460.01" fill="#fff" rx="3.7"/><path fill="url(#c)" d="M395.71,81.67c-1.59-2.62-7.65-16.9-9.87-22L378,41.78a6.07,6.07,0,0,0,0,5.28,119.22,119.22,0,0,0-15.54,1.77c-1.77.32-3.93,1.1-4.08,2.89-.11,1.22.82,2.26,1.74,3.07A25.64,25.64,0,0,0,371,60.38c2.23.53,4.79.91,6.11,2.78a8.22,8.22,0,0,1,1.12,3.62,217.69,217.69,0,0,0,5.05,24.37c.76,2.86,1.95,6.1,4.76,7,1.8.59,3.75,0,5.54-.6,5.44-1.83,10.89-4,15.33-7.63,5.33-4.38,24-28,14.76-33.56-4.52-2.73-16.76,11.84-19.16,14.81C400.86,75.73,400.15,77.82,395.71,81.67Z" transform="translate(-134.9)"/><path fill="#3f3d56" d="M503.3,112.35a15.36,15.36,0,0,1-6.22,1.86c-1.4.19-2.83.31-4.25.37-8.53.35-17.26-1.61-23.84-6.94-3.5-2.84-6.33-6.55-10.23-8.82a25.75,25.75,0,0,0-9.64-2.89c-2.74-.37-5.54-.54-8.27-.87-6.1-.73-12.8-2.85-15.63-8.31-2-3.76-1.61-8.27-1-12.47,1.16-8,3.07-16,3.41-24.15.19-4.4-.14-9-2.5-12.73-1.58-2.48-3.94-4.34-5.79-6.62-5.18-6.4-1.6-16.54,5.21-20.35a20.64,20.64,0,0,0,3.67-2.15c1.39-1.22,2.15-3,3.37-4.4C435-.06,441-.15,446.15.07L455,.45c2.86.12,6.16.49,7.68,2.91,1.17,1.86.95,4.56,2.67,5.93a7.1,7.1,0,0,0,2,1A22.58,22.58,0,0,1,481,24.7c2.55,8.46-.07,17.83,2.47,26.28a5,5,0,0,0,1.09,2.13,7.88,7.88,0,0,0,2.52,1.32c5.56,2.45,7.28,9.57,6.83,15.62-.25,3.41-.94,7,.32,10.14.91,2.28,2.73,4.06,4.46,5.8,3.65,3.65,7.25,7.64,8.75,12.58S507.69,109.64,503.3,112.35Z" transform="translate(-134.9)"/><path fill="#25233a" d="M492.83,114.58c-8.53.35-17.26-1.61-23.84-6.94-3.5-2.84-6.33-6.55-10.23-8.82a25.75,25.75,0,0,0-9.64-2.89c-3.59-4-7.14-8.07-10.58-12.21-2.66-3.2-5.28-6.51-6.87-10.36s-2-7.76-2.51-11.76c-1.35-11.15-2.66-22.71.83-33.38a15.43,15.43,0,0,1,2-4.32c6-8.3,21.92-7,27.15,1.34a24.45,24.45,0,0,1,2.75,7.67,89.67,89.67,0,0,1,1.88,13.23c.24,3.71.38,7.76,2.81,10.57,1.52,1.75,3.75,2.76,5.39,4.41,6.28,6.29,1.31,18,6.38,25.32A19.92,19.92,0,0,0,483,90.79c4.05,3,8.4,5.94,10.92,10.31S496.47,111.4,492.83,114.58Z" transform="translate(-134.9)"/><path fill="#3f3d56" d="M410.72,120.12s-37.09,6.79-38.16,16.72S379.28,229,379.28,229h8.49s15.25-45,12.62-58.23-5.3-16.91-5.3-16.91,15.45,7.63,30.06-9.2,8.09-28.08,8.09-28.08Z" transform="translate(-134.9)"/><path fill="#25233a" d="M431.58,118.1s-35.37,13.06-34.73,23,22.41,89.62,22.41,89.62l8.37-1.46s7.31-46.92,2.45-59.54S422,154,422,154s20.46,9.4,32.48-9.37c10.18-15.92-6.68-32.06-17.06-28.51Z" transform="translate(-134.9)"/><path fill="#68e1fd" d="M410.72,120.12V99.23s-6.14-11.4-7.14-17.27c-.58-3.4,3.71-13.83,8.65-17.86,3.44-2.8,6-7.79,10.4-7.93l21.59-.65,10.58,30-3.73,34.78S442,115.6,410.72,120.12Z" transform="translate(-134.9)"/><path fill="url(#g)" d="M432.93,115.34c-.25.41-1.47,2.3-1.35,2.76s5.75.61,7.77.81c3.44.34,8.28,1,11.72,1.38,2.33-11.43,1.17-18.66,2.87-24.83a5.64,5.64,0,0,0,.47-2.3c-.2-1.38-5.13-8.47-6.36-9-4-1.73-4,4.32-4.46,6.56C441.91,99.57,437.6,107.74,432.93,115.34Z" transform="translate(-134.9)"/><path fill="url(#h)" d="M418.18,20.79s-5,16.67-1.58,19.53S423,43.58,423.7,45s2.46,7.45,0,11.41S422.41,66,426,64.1s11.57-7.73,11.57-7.73l4.6-16.73s7.36-17.54,6.22-21.38S429.32,4.13,418.18,20.79Z" transform="translate(-134.9)"/><path fill="#3f3d56" d="M439.84,25.14c.54,2.1-.42,4.38.17,6.47.73,2.58,3.53,4,6.14,4.59s5.44.8,7.67,2.31c2.52,1.7,4.06,5,7,5.65a9.26,9.26,0,0,0,4.38-.42c3.24-.84,6.73-1.84,8.77-4.5a9.82,9.82,0,0,0,1.83-5c.72-7.06-4.12-13.72-10.15-17.47s-13.15-5.21-20-7c-3.8-1-12.8-3.82-14.9,1.3-1.49,3.63,1.91,10.23,6.16,6.8C436.5,20.69,439.19,22.58,439.84,25.14Z" transform="translate(-134.9)"/><path fill="url(#i)" d="M448.58,40.66s-4.43,3.58-7.12,2.6-7.3,5-7.3,5-1.42,2.42,1.72,3.6a13.93,13.93,0,0,0,10.79-.61C452.41,48.34,459,40,461.46,37.54c5.41-5.51,4.2-18-1.93-18.73s-5.12,6.23-4.9,6.55a6.21,6.21,0,0,0,1.34.72,2.73,2.73,0,0,1,1.2,3.93C454.91,33.63,450.87,39.71,448.58,40.66Z" transform="translate(-134.9)"/><path fill="url(#j)" d="M373.77,238.5a1.88,1.88,0,0,0-.21,1,1.26,1.26,0,0,0,1,.91,3.58,3.58,0,0,0,1.42-.07,18.57,18.57,0,0,0,8.44-3.58,9.61,9.61,0,0,0,3.71-8.09c0-.25-8.37,0-9.29.66C376.47,231,374.85,235.9,373.77,238.5Z" transform="translate(-134.9)"/><path fill="url(#k)" d="M370.16,244.05l3.61-5.55s8.3,4.09,13.1-4.57c2.46-4.45,1.26-5.23,1.26-5.23s2.91.65,3.38,5.91a53.42,53.42,0,0,1,0,9.44l-2.17,1.2-1.17-4.76s-5.54,7.54-7.23,10.06c-.88,1.31-5,2.3-8.71,2.95A3.87,3.87,0,0,1,368.1,248C368.65,246.86,369.33,245.56,370.16,244.05Z" transform="translate(-134.9)"/><path fill="url(#l)" d="M415,239a1.7,1.7,0,0,0-.13,1,1.19,1.19,0,0,0,1,.79,3.18,3.18,0,0,0,1.33-.15,17.43,17.43,0,0,0,7.72-3.87,9.07,9.07,0,0,0,3-7.82c-.05-.22-7.87.5-8.7,1.17C417,231.87,415.81,236.52,415,239Z" transform="translate(-134.9)"/><path fill="url(#m)" d="M411.89,244.46,415,239s8,3.36,12-5.06c2.05-4.33.88-5,.88-5s2.77.45,3.52,5.36a50.15,50.15,0,0,1,.55,8.87l-2,1.26-1.38-4.41s-4.76,7.42-6.21,9.88c-.75,1.28-4.54,2.46-8,3.29a3.64,3.64,0,0,1-4.21-5C410.63,247.19,411.2,245.93,411.89,244.46Z" transform="translate(-134.9)"/><path fill="url(#n)" d="M438.5,67.17s15.93,47.45,34.15,29.64c3.53-3.45-10.49-53.83-11.23-55s1-9-.74-10.45a18.65,18.65,0,0,0-4.34-2.57s-2.46.4-2.37,2.07-2.36,3.16-2.86,4.34S448,40,448.42,41.5a23,23,0,0,0,2.31,4.84c.38.39,6.86,30.14,6.86,30.14s-6.15-22.83-13.37-21S438.5,67.17,438.5,67.17Z" transform="translate(-134.9)"/></svg>