<svg xmlns="http://www.w3.org/2000/svg" enable-background="new 0 0 512 512" viewBox="0 0 512 512"><path fill="#9bc9ff" fill-rule="evenodd" d="M175.669,174.929c-8.271,0-14.991-6.691-14.991-14.967c0-8.277,6.717-14.972,14.991-14.972
		c8.256,0,14.943,6.723,14.943,14.972C190.613,168.209,183.922,174.929,175.669,174.929L175.669,174.929z M209.348,212.439h-67.424
		l1.455-5.098c4.115-14.42,17.281-24.412,32.29-24.412c14.979,0,28.189,10.012,32.247,24.426L209.348,212.439L209.348,212.439z
		 M190.613,265.139c0,8.244-6.692,14.972-14.943,14.972h-0.047c-8.251,0-14.944-6.727-14.944-14.972
		c0-8.276,6.719-14.967,14.991-14.967C183.922,250.171,190.613,256.892,190.613,265.139L190.613,265.139z M190.613,370.321
		c0,8.247-6.691,14.967-14.943,14.967c-8.271,0-14.991-6.692-14.991-14.967c0-8.278,6.716-14.972,14.991-14.972
		C183.925,355.349,190.613,362.072,190.613,370.321L190.613,370.321z M93.45,77.289h72.917V54.35H84.771
		c-10.048,0-18.245,8.19-18.245,18.241v409.167c0,10.051,8.197,18.241,18.245,18.241h342.462c10.048,0,18.246-8.19,18.246-18.241
		V72.591c0-10.051-8.197-18.241-18.246-18.241h-81.596v22.939h72.917c2.199,0,3.972,1.809,3.972,4v391.78c0,2.187-1.778,4-3.972,4
		H93.45c-2.194,0-3.972-1.813-3.972-4V81.29C89.478,79.098,91.251,77.289,93.45,77.289z" clip-rule="evenodd"/><path fill="#57a4ff" fill-rule="evenodd" d="M147.225,418.799c3.538-12.401,14.906-21.51,28.444-21.51c13.491,0,24.906,9.109,28.397,21.51H147.225
		L147.225,418.799z M164.678,370.321c0-6.052,4.906-10.972,10.991-10.972c6.038,0,10.943,4.92,10.943,10.972
		c0,6.047-4.906,10.967-10.943,10.967C169.584,381.288,164.678,376.368,164.678,370.321L164.678,370.321z M197.085,386.661
		c3.444-4.528,5.519-10.199,5.519-16.34c0-14.873-12.076-26.972-26.935-26.972c-14.906,0-26.982,12.099-26.982,26.972
		c0,6.142,2.076,11.812,5.519,16.34c-14.293,7.679-24.057,22.788-24.057,40.138c0,4.42,3.585,8,7.972,8h75.049
		c4.434,0,8.019-3.58,8.019-8C221.189,409.449,211.378,394.34,197.085,386.661L197.085,386.661z M147.225,313.621
		c3.491-12.392,14.906-21.51,28.397-21.51h0.047l0,0c13.491,0,24.906,9.118,28.397,21.51H147.225L147.225,313.621z M164.678,265.139
		c0-6.047,4.906-10.967,10.991-10.967c6.038,0,10.943,4.92,10.943,10.967c0,6.043-4.906,10.963-10.943,10.972l0,0h-0.047
		C169.584,276.101,164.678,271.182,164.678,265.139L164.678,265.139z M197.085,281.479c3.444-4.538,5.519-10.199,5.519-16.34
		c0-14.868-12.076-26.968-26.935-26.968c-14.906,0-26.982,12.099-26.982,26.968c0,6.142,2.076,11.802,5.519,16.34
		c-14.293,7.679-24.057,22.793-24.057,40.142c0,4.415,3.585,7.995,7.972,7.995h75.049c4.434,0,8.019-3.58,8.019-7.995
		C221.189,304.272,211.378,289.158,197.085,281.479L197.085,281.479z M175.669,148.989c6.038,0,10.943,4.92,10.943,10.972
		c0,6.047-4.906,10.967-10.943,10.967c-6.085,0-10.991-4.92-10.991-10.967C164.678,153.909,169.584,148.989,175.669,148.989
		L175.669,148.989z M204.066,208.439h-56.841c3.538-12.397,14.906-21.51,28.444-21.51
		C189.16,186.929,200.576,196.043,204.066,208.439L204.066,208.439z M148.688,159.961c0,6.137,2.076,11.798,5.519,16.34
		c-14.293,7.68-24.057,22.789-24.057,40.138c0,4.42,3.585,8,7.972,8h75.049c4.434,0,8.019-3.581,8.019-8
		c0-17.349-9.811-32.458-24.104-40.138c3.444-4.542,5.519-10.203,5.519-16.34c0-14.873-12.076-26.973-26.935-26.973
		C160.763,132.989,148.688,145.088,148.688,159.961L148.688,159.961z M237.275,411.308c0-4.42,3.585-8,7.972-8h115.239
		c4.434,0,8.019,3.58,8.019,8c0,4.425-3.585,8-8.019,8H245.247C240.86,419.308,237.275,415.733,237.275,411.308L237.275,411.308z
		 M237.275,366.84c0-4.41,3.585-8,7.972-8h115.239c4.434,0,8.019,3.59,8.019,8c0,4.42-3.585,8-8.019,8H245.247
		C240.86,374.84,237.275,371.26,237.275,366.84L237.275,366.84z M237.275,261.658c0-4.42,3.585-8,7.972-8h115.239
		c4.434,0,8.019,3.58,8.019,8c0,4.425-3.585,8.005-8.019,8.005H245.247C240.86,269.663,237.275,266.082,237.275,261.658
		L237.275,261.658z M237.275,306.131c0-4.42,3.585-8,7.972-8h115.239c4.434,0,8.019,3.58,8.019,8c0,4.42-3.585,8-8.019,8H245.247
		C240.86,314.131,237.275,310.551,237.275,306.131L237.275,306.131z M237.275,200.948c0-4.42,3.585-8,7.972-8h115.239
		c4.434,0,8.019,3.58,8.019,8c0,4.42-3.585,8-8.019,8H245.247C240.86,208.949,237.275,205.369,237.275,200.948L237.275,200.948z
		 M237.275,156.48c0-4.42,3.585-8,7.972-8h115.239c4.434,0,8.019,3.58,8.019,8c0,4.42-3.585,8-8.019,8H245.247
		C240.86,164.48,237.275,160.9,237.275,156.48L237.275,156.48z M441.478,481.758V72.591c0-7.854-6.415-14.241-14.246-14.241h-77.596
		v14.939h68.917c4.387,0,7.972,3.58,7.972,8v391.78c0,4.41-3.585,8-7.972,8H93.45c-4.387,0-7.972-3.59-7.972-8V81.29
		c0-4.42,3.585-8,7.972-8h68.917V58.35H84.771c-7.83,0-14.245,6.387-14.245,14.241v409.167c0,7.854,6.415,14.241,14.245,14.241
		h342.462C435.063,495.999,441.478,489.612,441.478,481.758L441.478,481.758z M341.617,102.729H170.386c-4.434,0-8.019-3.58-8.019-8
		V89.29h-60.898v375.779h309.065V89.29h-60.898v5.439C349.636,99.148,346.051,102.729,341.617,102.729L341.617,102.729z
		 M178.358,44.911h40.897c3.679,0,6.887-2.528,7.783-6.123C230.246,25.368,242.18,16,256.001,16s25.756,9.368,28.963,22.788
		c0.896,3.595,4.104,6.123,7.783,6.123h40.85v41.817h-155.24V44.911L178.358,44.911z M427.233,42.35h-77.596v-5.439
		c0-4.42-3.585-8-8.019-8h-43.02C291.757,11.608,275.059,0,256.001,0c-19.057,0-35.803,11.609-42.595,28.911h-43.02
		c-4.434,0-8.019,3.581-8.019,8v5.439H84.771c-16.651,0-30.237,13.571-30.237,30.241v409.167c0,16.685,13.585,30.241,30.237,30.241
		h342.462c16.651,0,30.237-13.557,30.237-30.241V72.591C457.469,55.921,443.884,42.35,427.233,42.35z" clip-rule="evenodd"/></svg>