<svg xmlns="http://www.w3.org/2000/svg" viewBox="0 0 24 24"><path fill="#039BE5" d="M8 0v6h2V2h12v20H10v-4H8v6h16V0z"/><path fill="#039BE5" d="M11 18l7-6-7-6v2.5l3.214 2.5H0v2h14.214L11 15.5z"/><linearGradient id="a" x1="2.475" x2="27.167" y1="5.693" y2="17.207" gradientUnits="userSpaceOnUse"><stop offset="0" stop-color="#FFF" stop-opacity=".2"/><stop offset="1" stop-color="#FFF" stop-opacity="0"/></linearGradient><path fill="url(#a)" d="M8 0v6h2V2h12v20H10v-4H8v6h16V0H8zm3 15.5V18l7-6-7-6v2.5l3.214 2.5H0v2h14.214L11 15.5z"/></svg>