<svg xmlns="http://www.w3.org/2000/svg" width="44" height="44" viewBox="0 0 44 44"><g transform="translate(1578.816 232.234)"><circle cx="-1556.816" cy="210.234" r="22" fill="#ff9800" transform="scale(1 -1)"/><path style="line-height:normal;text-indent:0;text-align:start;text-decoration-line:none;text-decoration-style:solid;text-decoration-color:#000;text-transform:none;block-progression:tb;white-space:normal;isolation:auto;mix-blend-mode:normal;solid-color:#000;solid-opacity:1" fill="#fff" d="m -1556.8157,-222.23437 c -6.6156,0 -12,5.3845 -12,12 0,6.61559 5.3844,12 12,12 6.6156,0 12,-5.38441 12,-12 0,-6.6155 -5.3844,-12 -12,-12 z m 0,4 c 1.645,0 3,1.355 3,3 0,1.64499 -1.355,3 -3,3 -1.645,0 -3,-1.35501 -3,-3 0,-1.645 1.355,-3 3,-3 z m -0.098,8.00199 c 1.7987,-0.029 3.6343,0.3023 5.4863,1.0839 l 0.6114,0.2579 0,3.6562 0,2 -12,0 0,-2 0,-3.6797 0.6406,-0.2461 c 1.7015,-0.6554 3.463,-1.0432 5.2617,-1.0722 z" color="#000" enable-background="accumulate" font-family="sans-serif" font-weight="400" overflow="visible"/></g></svg>